<svg version="1.2" xmlns="http://www.w3.org/2000/svg" viewBox="0 0 550 558" width="550" height="558">
	<style>
		.s0 { fill: #25272f } 
		.s1 { fill: #fbfbfb } 
	</style>
	<g id="Background">
		<path id="Path 1" class="s0" d="m166 39.09c-23.83 0.35-42.97 1.07-46.5 1.75-3.3 0.64-9.38 2.09-13.5 3.23-4.13 1.14-10.42 3.55-14 5.34-3.58 1.79-8.97 4.96-12 7.04-3.03 2.08-8.35 6.54-11.84 9.92-3.49 3.37-8.48 9.28-11.1 13.13-2.61 3.85-5.91 9.92-7.32 13.5-1.41 3.57-3.27 8.97-4.12 12-0.85 3.03-2.13 10.45-2.83 16.5-0.99 8.45-1.29 42.32-1.29 146 0 99.92 0.32 138.12 1.23 147 0.68 6.6 2.18 15.6 3.34 20 1.16 4.4 3.23 10.7 4.62 14 1.38 3.3 5.06 9.54 8.16 13.87 3.11 4.33 8.36 10.41 11.67 13.5 3.31 3.1 8.71 7.41 12 9.58 3.29 2.17 8.79 5.2 12.23 6.75 3.44 1.54 10.41 3.88 15.5 5.19 5.09 1.32 14.88 2.94 21.75 3.61 9.15 0.89 46.56 1.18 139.5 1.08 79.09-0.07 131.15-0.51 138-1.16 6.05-0.57 14.82-1.93 19.5-3.03 4.68-1.09 12.77-3.87 18-6.17 5.23-2.3 12.88-6.69 17-9.76 4.13-3.07 9.46-7.81 11.86-10.52 2.39-2.72 5.85-7.19 7.68-9.94 1.84-2.75 4.97-8.6 6.96-13 2-4.4 4.49-11.38 5.54-15.5 1.05-4.13 2.36-12.9 2.92-19.5 0.61-7.29 1.01-63.79 1.02-144 0-80.86-0.39-136.46-1.01-143.5-0.56-6.33-2.15-15.78-3.54-21-1.38-5.22-4.35-12.88-6.59-17-2.23-4.13-5.98-9.97-8.33-13-2.34-3.03-6.68-7.77-9.64-10.55-2.95-2.77-7.85-6.68-10.87-8.69-3.02-2-8.88-5.2-13-7.1-4.13-1.9-12.23-4.69-18-6.21l-10.5-2.77c-67.43-0.54-115.13-0.8-149.5-0.94-34.38-0.13-80.72 0.03-103 0.35z"/>
		<path id="Path 2" class="s1" d="m137.12 106.81c-1.08 0.61-1.4 4.47-1.5 17.73l-0.12 16.96c-32.95 0.5-39.4 0.96-40.29 1.8-0.98 0.91-1.29 6.09-1.27 21.2 0.02 14.51 0.37 20.48 1.29 21.76 1.19 1.65 4.22 1.75 45.27 1.5l44-0.26c0.4-69.57 0.16-79.31-0.77-80.29-0.94-0.99-6.46-1.28-23.23-1.24-12.1 0.03-22.62 0.41-23.38 0.84zm58.46 36.69c-0.32 0.82-0.58 10.95-0.58 22.5 0 17.78 0.23 21.08 1.5 21.5 0.82 0.28 37.5 0.5 81.5 0.5h80c-0.03 112.98 0.24 126.77 1.23 127.77 0.95 0.94 6.69 1.26 22.52 1.25 21.03-0.02 21.26-0.04 22.36-2.27 0.8-1.62 1.01-25.91 0.75-86.25-0.2-46.2-0.7-84.56-1.11-85.25-0.59-0.99-22.5-1.25-104.17-1.25-90.99 0-103.48 0.18-104 1.5zm-58.53 55.16c-1.25 0.44-1.42 12.33-1.25 87.92 0.18 76.7 0.38 87.48 1.7 87.92 0.82 0.27 50.77 0.5 111 0.5h109.5c0 26.35 0.23 34.68 0.5 35.5 0.42 1.27 3.89 1.5 23 1.5 12.37 0 22.59-0.11 22.69-0.25 0.11-0.14 0.44-8.35 0.75-18.25l0.56-18c32.55-0.77 42.56-1.34 43.25-1.75 0.94-0.56 1.25-6.08 1.27-22 0.01-15.83-0.31-21.57-1.25-22.52-1.01-1.01-27.91-1.26-132.52-1.25l-131.25 0.02c0-103-0.37-126.73-1-128-0.96-1.91-1.96-2-23.25-1.92-12.24 0.04-22.9 0.3-23.7 0.58z"/>
	</g>
</svg>